<svg xmlns="http://www.w3.org/2000/svg" xmlns:xlink="http://www.w3.org/1999/xlink" xmlns:lucid="lucid" width="1154.67" height="509.33"><g transform="translate(-340 -333.3333333332945)" lucid:page-tab-id="0_0"><path d="M360 651.08a6 6 0 0 1 6-6h148a6 6 0 0 1 6 6v148a6 6 0 0 1-6 6H366a6 6 0 0 1-6-6z" stroke="#6f7681" fill="#2c2c30"/><use xlink:href="#a" transform="matrix(1,0,0,1,365,650.0839895012928) translate(9.290123456790127 64.65277777777777)"/><use xlink:href="#b" transform="matrix(1,0,0,1,365,650.0839895012928) translate(36.01851851851852 64.65277777777777)"/><use xlink:href="#c" transform="matrix(1,0,0,1,365,650.0839895012928) translate(121.01851851851852 64.65277777777777)"/><use xlink:href="#d" transform="matrix(1,0,0,1,365,650.0839895012928) translate(23.30246913580246 91.31944444444446)"/><path d="M360 359.33a6 6 0 0 1 6-6h148a6 6 0 0 1 6 6v148a6 6 0 0 1-6 6H366a6 6 0 0 1-6-6z" stroke="#6f7681" fill="#2c2c30"/><use xlink:href="#e" transform="matrix(1,0,0,1,365,358.3333333332945) translate(57.098765432098766 78.71527777777777)"/><path d="M842.67 359.33a6 6 0 0 1 6-6h620a6 6 0 0 1 6 6v457.34a6 6 0 0 1-6 6h-620a6 6 0 0 1-6-6z" stroke="#6f7681" fill="#2c2c30"/><use xlink:href="#f" transform="matrix(1,0,0,1,847.6666666666279,358.3333333332945) translate(248.59876543209876 17.77777777777778)"/><use xlink:href="#g" transform="matrix(1,0,0,1,847.6666666666279,358.3333333332945) translate(306.62345679012344 17.77777777777778)"/><path d="M870.67 533.75a6 6 0 0 1 6-6H1098a6 6 0 0 1 6 6v255.33a6 6 0 0 1-6 6H876.67a6 6 0 0 1-6-6z" stroke="#6f7681" fill="#2c2c30"/><use xlink:href="#h" transform="matrix(1,0,0,1,875.6666666667054,532.7506561679982) translate(40.79629629629629 17.77777777777778)"/><use xlink:href="#i" transform="matrix(1,0,0,1,875.6666666667054,532.7506561679982) translate(104.37654320987653 17.77777777777778)"/><use xlink:href="#j" transform="matrix(1,0,0,1,875.6666666667054,532.7506561679982) translate(92.24691358024691 44.44444444444444)"/><path d="M890 624.67a6 6 0 0 1 6-6h181.33a6 6 0 0 1 6 6v148a6 6 0 0 1-6 6H896a6 6 0 0 1-6-6z" stroke="#6f7681" fill="#2c2c30"/><use xlink:href="#k" transform="matrix(1,0,0,1,895.0000000000387,623.6666666666279) translate(55.641975308641975 17.77777777777778)"/><path d="M923.67 651.33H1051v127.34H923.67z" fill="none"/><path d="M1001.6 756.26c-4.34 1.27-8.66 2.03-13.12 2.03-7 0-14.13-1.92-20.5-5.35l-9.68 10.3-2.54-28.5 30.17-1.03-10.82 11.58c7.4 3.32 15.67 3.83 23.44 1.4 14.64-4.7 24.2-18.6 23.17-34l10.07-.63c1.4 20-11.07 38.2-30.17 44.2m.25-71.83c-7.26-3.3-15.66-3.82-23.3-1.27-14.77 4.58-24.32 18.46-23.3 33.87l-10.06.63c-1.3-20 11.2-38.07 30.3-44.18 11.2-3.58 23.3-2.3 33.6 3.3l9.56-10.3 2.54 28.5-30.17 1.03 10.82-11.6z" fill="#47c7fc"/><path d="M889.02 656h-4.95m-4.95 0h-9.9m-4.93 0h-9.9m-4.95 0h-9.9m-4.93 0h-9.9m-4.94 0h-9.9m-4.94 0h-9.9m-4.93 0h-9.88m-4.95 0h-9.9m-4.94 0h-9.9m-4.93 0h-9.9m-4.94 0h-9.9m-4.93 0h-4.95l-.94-.07-.9-.22-.88-.35-.8-.5-.72-.6-.6-.72-.5-.8-.37-.88-.22-.9v-5.14m0-5.12v-10.26m0-5.13v-10.27m0-5.14v-10.27m0-5.13v-10.26m-.02-5.13v-10.25m0-5.13v-10.26m0-5.13v-10.26m0-5.14v-10.26m0-5.13l-.02-10.26m0-5.13V491.9m0-5.14V476.5m0-5.13V461.1m0-5.13V445.7m0-5.12v-10.26m0-5.13l-.02-10.27m0-5.13v-5.13l-.07-.94-.2-.92-.37-.86-.5-.8-.6-.7-.72-.63-.8-.48-.87-.36-.9-.22h-4.95m-4.95 0h-9.88m-4.94 0h-9.88m-4.94-.02h-9.88m-4.94 0h-9.9m-4.93 0h-9.88m-4.95-.02h-9.88m-4.94 0h-9.9m-4.93 0h-9.88m-4.95-.02h-9.88m-4.94 0h-9.9m-4.93 0h-4.94" stroke="#47c7fc" fill="none"/><path d="M889.52 656.5H889v-1h.5z" stroke="#47c7fc" stroke-width=".05" fill="#47c7fc"/><path d="M522.06 398.67l14.27-4.64v9.27z" stroke="#47c7fc" fill="#47c7fc"/><path d="M889.02 656h-4.95m-4.95 0h-9.9m-4.93 0h-9.9m-4.95 0h-9.9m-4.93 0h-9.9m-4.94 0h-9.9m-4.94 0h-9.9m-4.93 0h-9.88m-4.95 0h-9.9m-4.94 0h-9.9m-4.93 0h-9.9m-4.94 0h-9.9m-4.94 0h-4.94l-.94.07-.9.22-.88.36-.8.5-.72.6-.6.7-.5.82-.37.87-.22.9-.02 6.55m-.03 6.53l-.02 6.54-.07.94-.2.92-.37.87-.5.8-.6.7-.72.62-.8.5-.87.36-.9.22h-4.95m-4.95 0h-9.88m-4.94 0h-9.88m-4.94 0l-9.88.02m-4.95 0h-9.88m-4.94 0h-9.9m-4.93 0l-9.88.02m-4.94 0h-9.9m-4.93 0h-9.88m-4.95 0l-9.88.02m-4.94 0h-9.9m-4.93 0h-4.94" stroke="#47c7fc" fill="none"/><path d="M889.52 656.5H889v-1h.5z" stroke="#47c7fc" stroke-width=".05" fill="#47c7fc"/><path d="M522.06 686.67l14.27-4.64v9.27z" stroke="#47c7fc" fill="#47c7fc"/><use xlink:href="#l" transform="matrix(1,0,0,1,742.6419753086421,630.667238245755) translate(0 14.222222222222223)"/><path d="M521 480h4.72m4.72 0h9.46m4.73 0h9.46m4.72 0h9.45m4.73 0h9.46m4.73 0h9.45m4.73 0h9.46m4.72 0h9.46m4.73 0h9.46m4.74 0h4.73l.94.07.92.22.87.35.8.5.7.6.62.72.5.8.35.88.22.9V490m0 4.93v9.88m0 4.94v9.88m0 4.93v9.87m0 4.94v9.87m0 4.94l.02 9.87m0 4.94v9.87m0 4.93v9.88m0 4.93v9.87m0 4.93l.02 9.87m0 4.94v9.88m0 4.94v9.87m0 4.93v9.87m0 4.93v9.88m.02 4.94v9.88m0 4.93v9.87m0 4.94V722l.08.93.22.92.36.87.5.8.6.72.72.6.8.5.87.36.93.22h5.08m5.1 0h10.16m5.08 0h10.16m5.08.02h10.17m5.08 0h10.16m5.08 0h10.16m5.08 0h10.16m5.1.02h10.15m5.08 0h10.17m5.1 0H802m5.08 0l10.17.02m5.08 0h10.16m5.1 0h10.16m5.08 0H863m5.1 0l5.07.02" stroke="#47c7fc" fill="none"/><path d="M521 480.5h-.5v-1h.5z" stroke="#47c7fc" stroke-width=".05" fill="#47c7fc"/><path d="M887.93 728l-14.26 4.63v-9.27z" stroke="#47c7fc" fill="#47c7fc"/><path d="M521 769.34h5.25m5.26 0h10.54m5.27 0h10.54m5.26 0h10.53m5.26 0h10.52m5.27 0h10.52m5.26 0H621m5.27 0h10.53m5.27 0h5.26l.94-.08.92-.22.86-.36.8-.5.72-.6.6-.72.5-.8.36-.87.22-.93v-5.04m.02-5.05l.03-10.1m.02-5.04V734l.1-.94.2-.92.37-.87.48-.8.6-.72.73-.6.8-.5.88-.36.9-.23h5.13m5.12 0h10.23m5.1 0h10.24m5.1 0l10.23-.02m5.12 0h10.22m5.12 0h10.2m5.13 0h10.22m5.12 0l10.23-.02m5.1 0h10.24m5.1 0h10.24m5.1 0h10.24m5.1-.02h10.24m5.1 0h10.24m5.1 0h10.24m5.1 0h5.13" stroke="#47c7fc" fill="none"/><path d="M521 769.84h-.5v-1h.5z" stroke="#47c7fc" stroke-width=".05" fill="#47c7fc"/><path d="M887.93 728l-14.26 4.63v-9.27z" stroke="#47c7fc" fill="#47c7fc"/><use xlink:href="#m" transform="matrix(1,0,0,1,726.345679012346,702.6625860570036) translate(0 14.222222222222223)"/><path d="M1084.3 698.67h4.6m4.62 0h9.23m4.62 0h9.22m4.6 0h9.23m4.62 0h4.6l.95-.08.92-.23.87-.36.8-.48.7-.6.62-.73.5-.8.35-.88.22-.9v-4.76m0-4.75v-9.47m.02-4.75v-9.5m.02-4.73v-9.5m.02-4.74v-4.73l.08-.94.22-.92.36-.86.5-.8.6-.72.72-.6.8-.5.87-.36.92-.22h4.5m4.5-.02h8.97m4.48-.02l8.98-.02m4.5 0h4.48" stroke="#47c7fc" fill="none"/><path d="M1084.3 699.17h-.5v-1h.5z" stroke="#47c7fc" stroke-width=".05" fill="#47c7fc"/><path d="M1205.9 630.67l-14.26 4.63v-9.27z" stroke="#47c7fc" fill="#47c7fc"/><path d="M1213.33 664.54a6 6 0 0 1 6-6h209.34a6 6 0 0 1 6 6v30.92a6 6 0 0 1-6 6h-209.34a6 6 0 0 1-6-6z" stroke="#3a414a" fill="#635dff" fill-opacity=".4"/><path d="M1208 533.75a6 6 0 0 1 6-6h221.33a6 6 0 0 1 6 6v255.33a6 6 0 0 1-6 6H1214a6 6 0 0 1-6-6z" stroke="#6f7681" fill="#2c2c30"/><g><use xlink:href="#n" transform="matrix(1,0,0,1,1212.9999999999611,532.7506561679982) translate(45.08641975308643 17.77777777777778)"/><use xlink:href="#o" transform="matrix(1,0,0,1,1212.9999999999611,532.7506561679982) translate(113.60493827160494 17.77777777777778)"/></g><path d="M1213.33 614.42a6 6 0 0 1 6-6h209.34a6 6 0 0 1 6 6v30.9a6 6 0 0 1-6 6h-209.34a6 6 0 0 1-6-6z" stroke="#3a414a" fill="#ba23f6" fill-opacity=".4"/><g><use xlink:href="#p" transform="matrix(1,0,0,1,1218.3333333332946,613.4173228346259) translate(30.19753086419753 21.90277777777778)"/></g><path d="M1213.33 714.67a6 6 0 0 1 6-6h209.34a6 6 0 0 1 6 6v30.9a6 6 0 0 1-6 6h-209.34a6 6 0 0 1-6-6zM1213.33 664.54a6 6 0 0 1 6-6h209.34a6 6 0 0 1 6 6v30.92a6 6 0 0 1-6 6h-209.34a6 6 0 0 1-6-6z" stroke="#3a414a" fill="#635dff" fill-opacity=".4"/><defs><path fill="#ced4db" d="M33 0v-248h34V0H33" id="q"/><path fill="#ced4db" d="M30-248c87 1 191-15 191 75 0 78-77 80-158 76V0H30v-248zm33 125c57 0 124 11 124-50 0-59-68-47-124-48v98" id="r"/><g id="a"><use transform="matrix(0.06172839506172839,0,0,0.06172839506172839,0,0)" xlink:href="#q"/><use transform="matrix(0.06172839506172839,0,0,0.06172839506172839,6.172839506172839,0)" xlink:href="#r"/></g><path fill="#ced4db" d="M212-179c-10-28-35-45-73-45-59 0-87 40-87 99 0 60 29 101 89 101 43 0 62-24 78-52l27 14C228-24 195 4 139 4 59 4 22-46 18-125c-6-104 99-153 187-111 19 9 31 26 39 46" id="s"/><path fill="#ced4db" d="M141-36C126-15 110 5 73 4 37 3 15-17 15-53c-1-64 63-63 125-63 3-35-9-54-41-54-24 1-41 7-42 31l-33-3c5-37 33-52 76-52 45 0 72 20 72 64v82c-1 20 7 32 28 27v20c-31 9-61-2-59-35zM48-53c0 20 12 33 32 33 41-3 63-29 60-74-43 2-92-5-92 41" id="t"/><path fill="#ced4db" d="M210-169c-67 3-38 105-44 169h-31v-121c0-29-5-50-35-48C34-165 62-65 56 0H25l-1-190h30c1 10-1 24 2 32 10-44 99-50 107 0 11-21 27-35 58-36 85-2 47 119 55 194h-31v-121c0-29-5-49-35-48" id="u"/><path fill="#ced4db" d="M100-194c63 0 86 42 84 106H49c0 40 14 67 53 68 26 1 43-12 49-29l28 8c-11 28-37 45-77 45C44 4 14-33 15-96c1-61 26-98 85-98zm52 81c6-60-76-77-97-28-3 7-6 17-6 28h103" id="v"/><path fill="#ced4db" d="M114-163C36-179 61-72 57 0H25l-1-190h30c1 12-1 29 2 39 6-27 23-49 58-41v29" id="w"/><g id="b"><use transform="matrix(0.06172839506172839,0,0,0.06172839506172839,0,0)" xlink:href="#s"/><use transform="matrix(0.06172839506172839,0,0,0.06172839506172839,15.987654320987653,0)" xlink:href="#t"/><use transform="matrix(0.06172839506172839,0,0,0.06172839506172839,28.333333333333332,0)" xlink:href="#u"/><use transform="matrix(0.06172839506172839,0,0,0.06172839506172839,46.79012345679012,0)" xlink:href="#v"/><use transform="matrix(0.06172839506172839,0,0,0.06172839506172839,59.1358024691358,0)" xlink:href="#w"/><use transform="matrix(0.06172839506172839,0,0,0.06172839506172839,66.48148148148148,0)" xlink:href="#t"/></g><path fill="#ced4db" d="M100-194c62-1 85 37 85 99 1 63-27 99-86 99S16-35 15-95c0-66 28-99 85-99zM99-20c44 1 53-31 53-75 0-43-8-75-51-75s-53 32-53 75 10 74 51 75" id="x"/><g id="c"><use transform="matrix(0.06172839506172839,0,0,0.06172839506172839,0,0)" xlink:href="#x"/><use transform="matrix(0.06172839506172839,0,0,0.06172839506172839,12.345679012345679,0)" xlink:href="#w"/></g><path fill="#ced4db" d="M115-194c55 1 70 41 70 98S169 2 115 4C84 4 66-9 55-30l1 105H24l-1-265h31l2 30c10-21 28-34 59-34zm-8 174c40 0 45-34 45-75s-6-73-45-74c-42 0-51 32-51 76 0 43 10 73 51 73" id="y"/><path fill="#ced4db" d="M24-231v-30h32v30H24zM24 0v-190h32V0H24" id="z"/><path fill="#ced4db" d="M106-169C34-169 62-67 57 0H25v-261h32l-1 103c12-21 28-36 61-36 89 0 53 116 60 194h-32v-121c2-32-8-49-39-48" id="A"/><path fill="#ced4db" d="M24 0v-261h32V0H24" id="B"/><g id="d"><use transform="matrix(0.06172839506172839,0,0,0.06172839506172839,0,0)" xlink:href="#y"/><use transform="matrix(0.06172839506172839,0,0,0.06172839506172839,12.345679012345679,0)" xlink:href="#v"/><use transform="matrix(0.06172839506172839,0,0,0.06172839506172839,24.691358024691358,0)" xlink:href="#w"/><use transform="matrix(0.06172839506172839,0,0,0.06172839506172839,32.03703703703704,0)" xlink:href="#z"/><use transform="matrix(0.06172839506172839,0,0,0.06172839506172839,36.91358024691358,0)" xlink:href="#y"/><use transform="matrix(0.06172839506172839,0,0,0.06172839506172839,49.25925925925926,0)" xlink:href="#A"/><use transform="matrix(0.06172839506172839,0,0,0.06172839506172839,61.60493827160494,0)" xlink:href="#v"/><use transform="matrix(0.06172839506172839,0,0,0.06172839506172839,73.95061728395062,0)" xlink:href="#w"/><use transform="matrix(0.06172839506172839,0,0,0.06172839506172839,81.2962962962963,0)" xlink:href="#z"/><use transform="matrix(0.06172839506172839,0,0,0.06172839506172839,86.17283950617285,0)" xlink:href="#t"/><use transform="matrix(0.06172839506172839,0,0,0.06172839506172839,98.51851851851853,0)" xlink:href="#B"/></g><path fill="#dfe3e8" d="M205 0l-28-72H64L36 0H1l101-248h38L239 0h-34zm-38-99l-47-123c-12 45-31 82-46 123h93" id="C"/><path fill="#dfe3e8" d="M30-248c87 1 191-15 191 75 0 78-77 80-158 76V0H30v-248zm33 125c57 0 124 11 124-50 0-59-68-47-124-48v98" id="D"/><path fill="#dfe3e8" d="M33 0v-248h34V0H33" id="E"/><g id="e"><use transform="matrix(0.06172839506172839,0,0,0.06172839506172839,0,0)" xlink:href="#C"/><use transform="matrix(0.06172839506172839,0,0,0.06172839506172839,14.814814814814813,0)" xlink:href="#D"/><use transform="matrix(0.06172839506172839,0,0,0.06172839506172839,29.629629629629626,0)" xlink:href="#E"/></g><path fill="#ced4db" d="M30 0v-248h187v28H63v79h144v27H63v87h162V0H30" id="F"/><path fill="#ced4db" d="M85-194c31 0 48 13 60 33l-1-100h32l1 261h-30c-2-10 0-23-3-31C134-8 116 4 85 4 32 4 16-35 15-94c0-66 23-100 70-100zm9 24c-40 0-46 34-46 75 0 40 6 74 45 74 42 0 51-32 51-76 0-42-9-74-50-73" id="G"/><path fill="#ced4db" d="M177-190C167-65 218 103 67 71c-23-6-38-20-44-43l32-5c15 47 100 32 89-28v-30C133-14 115 1 83 1 29 1 15-40 15-95c0-56 16-97 71-98 29-1 48 16 59 35 1-10 0-23 2-32h30zM94-22c36 0 50-32 50-73 0-42-14-75-50-75-39 0-46 34-46 75s6 73 46 73" id="H"/><g id="f"><use transform="matrix(0.06172839506172839,0,0,0.06172839506172839,0,0)" xlink:href="#F"/><use transform="matrix(0.06172839506172839,0,0,0.06172839506172839,14.814814814814813,0)" xlink:href="#G"/><use transform="matrix(0.06172839506172839,0,0,0.06172839506172839,27.160493827160494,0)" xlink:href="#H"/><use transform="matrix(0.06172839506172839,0,0,0.06172839506172839,39.50617283950617,0)" xlink:href="#v"/></g><path fill="#ced4db" d="M30-248c118-7 216 8 213 122C240-48 200 0 122 0H30v-248zM63-27c89 8 146-16 146-99s-60-101-146-95v194" id="I"/><path fill="#ced4db" d="M108 0H70L1-190h34L89-25l56-165h34" id="J"/><path fill="#ced4db" d="M96-169c-40 0-48 33-48 73s9 75 48 75c24 0 41-14 43-38l32 2c-6 37-31 61-74 61-59 0-76-41-82-99-10-93 101-131 147-64 4 7 5 14 7 22l-32 3c-4-21-16-35-41-35" id="K"/><g id="g"><use transform="matrix(0.06172839506172839,0,0,0.06172839506172839,0,0)" xlink:href="#I"/><use transform="matrix(0.06172839506172839,0,0,0.06172839506172839,15.987654320987653,0)" xlink:href="#v"/><use transform="matrix(0.06172839506172839,0,0,0.06172839506172839,28.333333333333332,0)" xlink:href="#J"/><use transform="matrix(0.06172839506172839,0,0,0.06172839506172839,39.44444444444444,0)" xlink:href="#z"/><use transform="matrix(0.06172839506172839,0,0,0.06172839506172839,44.32098765432099,0)" xlink:href="#K"/><use transform="matrix(0.06172839506172839,0,0,0.06172839506172839,55.4320987654321,0)" xlink:href="#v"/></g><path fill="#ced4db" d="M197 0v-115H63V0H30v-248h33v105h134v-105h34V0h-34" id="L"/><path fill="#ced4db" d="M127-220V0H93v-220H8v-28h204v28h-85" id="M"/><g id="h"><use transform="matrix(0.06172839506172839,0,0,0.06172839506172839,0,0)" xlink:href="#L"/><use transform="matrix(0.06172839506172839,0,0,0.06172839506172839,15.987654320987653,0)" xlink:href="#M"/><use transform="matrix(0.06172839506172839,0,0,0.06172839506172839,29.50617283950617,0)" xlink:href="#M"/><use transform="matrix(0.06172839506172839,0,0,0.06172839506172839,43.02469135802469,0)" xlink:href="#r"/></g><g id="i"><use transform="matrix(0.06172839506172839,0,0,0.06172839506172839,0,0)" xlink:href="#s"/><use transform="matrix(0.06172839506172839,0,0,0.06172839506172839,15.987654320987653,0)" xlink:href="#t"/><use transform="matrix(0.06172839506172839,0,0,0.06172839506172839,28.333333333333332,0)" xlink:href="#u"/><use transform="matrix(0.06172839506172839,0,0,0.06172839506172839,46.79012345679012,0)" xlink:href="#v"/><use transform="matrix(0.06172839506172839,0,0,0.06172839506172839,59.1358024691358,0)" xlink:href="#w"/><use transform="matrix(0.06172839506172839,0,0,0.06172839506172839,66.48148148148148,0)" xlink:href="#t"/></g><path fill="#ced4db" d="M205 0l-28-72H64L36 0H1l101-248h38L239 0h-34zm-38-99l-47-123c-12 45-31 82-46 123h93" id="N"/><g id="j"><use transform="matrix(0.06172839506172839,0,0,0.06172839506172839,0,0)" xlink:href="#N"/><use transform="matrix(0.06172839506172839,0,0,0.06172839506172839,14.814814814814813,0)" xlink:href="#y"/><use transform="matrix(0.06172839506172839,0,0,0.06172839506172839,27.160493827160494,0)" xlink:href="#y"/></g><path fill="#ced4db" d="M117-194c89-4 53 116 60 194h-32v-121c0-31-8-49-39-48C34-167 62-67 57 0H25l-1-190h30c1 10-1 24 2 32 11-22 29-35 61-36" id="O"/><path fill="#ced4db" d="M59-47c-2 24 18 29 38 22v24C64 9 27 4 27-40v-127H5v-23h24l9-43h21v43h35v23H59v120" id="P"/><g id="k"><use transform="matrix(0.06172839506172839,0,0,0.06172839506172839,0,0)" xlink:href="#q"/><use transform="matrix(0.06172839506172839,0,0,0.06172839506172839,6.172839506172839,0)" xlink:href="#O"/><use transform="matrix(0.06172839506172839,0,0,0.06172839506172839,18.51851851851852,0)" xlink:href="#P"/><use transform="matrix(0.06172839506172839,0,0,0.06172839506172839,24.691358024691358,0)" xlink:href="#v"/><use transform="matrix(0.06172839506172839,0,0,0.06172839506172839,37.03703703703704,0)" xlink:href="#w"/><use transform="matrix(0.06172839506172839,0,0,0.06172839506172839,44.382716049382715,0)" xlink:href="#J"/><use transform="matrix(0.06172839506172839,0,0,0.06172839506172839,55.49382716049382,0)" xlink:href="#t"/><use transform="matrix(0.06172839506172839,0,0,0.06172839506172839,67.8395061728395,0)" xlink:href="#B"/></g><path fill="#ced4db" d="M135-150c-39-12-60 13-60 57V0H25l-1-190h47c2 13-1 29 3 40 6-28 27-53 61-41v41" id="Q"/><path fill="#ced4db" d="M185-48c-13 30-37 53-82 52C43 2 14-33 14-96s30-98 90-98c62 0 83 45 84 108H66c0 31 8 55 39 56 18 0 30-7 34-22zm-45-69c5-46-57-63-70-21-2 6-4 13-4 21h74" id="R"/><path fill="#ced4db" d="M84 4C32 4 15-41 15-95c0-55 18-99 73-99 29 0 47 12 58 34l2-30h48l-1 265h-49V-32C136-9 114 4 84 4zm21-34c32 0 41-29 41-66 0-36-9-64-40-64-33 0-39 30-40 65 0 43 13 65 39 65" id="S"/><path fill="#ced4db" d="M85 4C-2 5 27-109 22-190h50c7 57-23 150 33 157 60-5 35-97 40-157h50l1 190h-47c-2-12 1-28-3-38-12 25-28 42-61 42" id="T"/><path fill="#ced4db" d="M137-138c1-29-70-34-71-4 15 46 118 7 119 86 1 83-164 76-172 9l43-7c4 19 20 25 44 25 33 8 57-30 24-41C81-84 22-81 20-136c-2-80 154-74 161-7" id="U"/><path fill="#ced4db" d="M115-3C79 11 28 4 28-45v-112H4v-33h27l15-45h31v45h36v33H77v99c-1 23 16 31 38 25v30" id="V"/><g id="l"><use transform="matrix(0.04938271604938272,0,0,0.04938271604938272,0,0)" xlink:href="#Q"/><use transform="matrix(0.04938271604938272,0,0,0.04938271604938272,6.913580246913581,0)" xlink:href="#R"/><use transform="matrix(0.04938271604938272,0,0,0.04938271604938272,16.790123456790127,0)" xlink:href="#S"/><use transform="matrix(0.04938271604938272,0,0,0.04938271604938272,27.604938271604947,0)" xlink:href="#T"/><use transform="matrix(0.04938271604938272,0,0,0.04938271604938272,38.41975308641976,0)" xlink:href="#R"/><use transform="matrix(0.04938271604938272,0,0,0.04938271604938272,48.296296296296305,0)" xlink:href="#U"/><use transform="matrix(0.04938271604938272,0,0,0.04938271604938272,58.17283950617284,0)" xlink:href="#V"/></g><path fill="#ced4db" d="M25-224v-37h50v37H25zM25 0v-190h50V0H25" id="W"/><path fill="#ced4db" d="M220-157c-53 9-28 100-34 157h-49v-107c1-27-5-49-29-50C55-147 81-57 75 0H25l-1-190h47c2 12-1 28 3 38 10-53 101-56 108 0 13-22 24-43 59-42 82 1 51 116 57 194h-49v-107c-1-25-5-48-29-50" id="X"/><path fill="#ced4db" d="M133-34C117-15 103 5 69 4 32 3 11-16 11-54c-1-60 55-63 116-61 1-26-3-47-28-47-18 1-26 9-28 27l-52-2c7-38 36-58 82-57s74 22 75 68l1 82c-1 14 12 18 25 15v27c-30 8-71 5-69-32zm-48 3c29 0 43-24 42-57-32 0-66-3-65 30 0 17 8 27 23 27" id="Y"/><path fill="#ced4db" d="M195-6C206 82 75 100 31 46c-4-6-6-13-8-21l49-6c3 16 16 24 34 25 40 0 42-37 40-79-11 22-30 35-61 35-53 0-70-43-70-97 0-56 18-96 73-97 30 0 46 14 59 34l2-30h47zm-90-29c32 0 41-27 41-63 0-35-9-62-40-62-32 0-39 29-40 63 0 36 9 62 39 62" id="Z"/><g id="m"><use transform="matrix(0.04938271604938272,0,0,0.04938271604938272,0,0)" xlink:href="#W"/><use transform="matrix(0.04938271604938272,0,0,0.04938271604938272,4.938271604938272,0)" xlink:href="#X"/><use transform="matrix(0.04938271604938272,0,0,0.04938271604938272,20.74074074074074,0)" xlink:href="#Y"/><use transform="matrix(0.04938271604938272,0,0,0.04938271604938272,30.617283950617285,0)" xlink:href="#Z"/><use transform="matrix(0.04938271604938272,0,0,0.04938271604938272,41.4320987654321,0)" xlink:href="#R"/></g><path fill="#ced4db" d="M240 0l2-218c-23 76-54 145-80 218h-23L58-218 59 0H30v-248h44l77 211c21-75 51-140 76-211h43V0h-30" id="aa"/><path fill="#ced4db" d="M140-251c81 0 123 46 123 126C263-53 228-8 163 1c7 30 30 48 69 40v23c-55 16-95-15-103-61C56-3 17-48 17-125c0-80 42-126 123-126zm0 227c63 0 89-41 89-101s-29-99-89-99c-61 0-89 39-89 99S79-25 140-24" id="ab"/><g id="n"><use transform="matrix(0.06172839506172839,0,0,0.06172839506172839,0,0)" xlink:href="#aa"/><use transform="matrix(0.06172839506172839,0,0,0.06172839506172839,18.456790123456788,0)" xlink:href="#ab"/><use transform="matrix(0.06172839506172839,0,0,0.06172839506172839,35.74074074074073,0)" xlink:href="#M"/><use transform="matrix(0.06172839506172839,0,0,0.06172839506172839,49.25925925925925,0)" xlink:href="#M"/></g><path fill="#ced4db" d="M160-131c35 5 61 23 61 61C221 17 115-2 30 0v-248c76 3 177-17 177 60 0 33-19 50-47 57zm-97-11c50-1 110 9 110-42 0-47-63-36-110-37v79zm0 115c55-2 124 14 124-45 0-56-70-42-124-44v89" id="ac"/><path fill="#ced4db" d="M143 0L79-87 56-68V0H24v-261h32v163l83-92h37l-77 82L181 0h-38" id="ad"/><g id="o"><use transform="matrix(0.06172839506172839,0,0,0.06172839506172839,0,0)" xlink:href="#ac"/><use transform="matrix(0.06172839506172839,0,0,0.06172839506172839,14.814814814814813,0)" xlink:href="#w"/><use transform="matrix(0.06172839506172839,0,0,0.06172839506172839,22.160493827160494,0)" xlink:href="#x"/><use transform="matrix(0.06172839506172839,0,0,0.06172839506172839,34.50617283950617,0)" xlink:href="#ad"/><use transform="matrix(0.06172839506172839,0,0,0.06172839506172839,45.61728395061728,0)" xlink:href="#v"/><use transform="matrix(0.06172839506172839,0,0,0.06172839506172839,57.962962962962955,0)" xlink:href="#w"/></g><path fill="#ced4db" d="M0 4l72-265h28L28 4H0" id="ae"/><path fill="#ced4db" d="M135-143c-3-34-86-38-87 0 15 53 115 12 119 90S17 21 10-45l28-5c4 36 97 45 98 0-10-56-113-15-118-90-4-57 82-63 122-42 12 7 21 19 24 35" id="af"/><g id="p"><use transform="matrix(0.06172839506172839,0,0,0.06172839506172839,0,0)" xlink:href="#K"/><use transform="matrix(0.06172839506172839,0,0,0.06172839506172839,11.11111111111111,0)" xlink:href="#t"/><use transform="matrix(0.06172839506172839,0,0,0.06172839506172839,23.45679012345679,0)" xlink:href="#u"/><use transform="matrix(0.06172839506172839,0,0,0.06172839506172839,41.91358024691358,0)" xlink:href="#v"/><use transform="matrix(0.06172839506172839,0,0,0.06172839506172839,54.25925925925926,0)" xlink:href="#w"/><use transform="matrix(0.06172839506172839,0,0,0.06172839506172839,61.60493827160494,0)" xlink:href="#t"/><use transform="matrix(0.06172839506172839,0,0,0.06172839506172839,73.95061728395062,0)" xlink:href="#ae"/><use transform="matrix(0.06172839506172839,0,0,0.06172839506172839,80.12345679012346,0)" xlink:href="#z"/><use transform="matrix(0.06172839506172839,0,0,0.06172839506172839,85,0)" xlink:href="#u"/><use transform="matrix(0.06172839506172839,0,0,0.06172839506172839,103.45679012345678,0)" xlink:href="#t"/><use transform="matrix(0.06172839506172839,0,0,0.06172839506172839,115.80246913580247,0)" xlink:href="#H"/><use transform="matrix(0.06172839506172839,0,0,0.06172839506172839,128.14814814814815,0)" xlink:href="#v"/><use transform="matrix(0.06172839506172839,0,0,0.06172839506172839,140.49382716049382,0)" xlink:href="#af"/></g></defs></g></svg>